<mxfile host="app.diagrams.net" agent="Mozilla/5.0 (Windows NT 10.0; Win64; x64) AppleWebKit/537.36 (KHTML, like Gecko) Chrome/131.0.0.0 Safari/537.36 Edg/131.0.0.0" version="26.0.2">
  <diagram name="第 1 页" id="olmqjQPAvo46s7Y5LKOY">
    <mxGraphModel dx="1104" dy="1223" grid="1" gridSize="10" guides="1" tooltips="1" connect="1" arrows="1" fold="1" page="0" pageScale="1" pageWidth="5000" pageHeight="5000" math="0" shadow="0">
      <root>
        <mxCell id="0" />
        <mxCell id="1" parent="0" />
        <mxCell id="ViQL7UCzNW7ZSoKKCmrP-18" value="" style="rounded=0;whiteSpace=wrap;html=1;dashed=1;strokeWidth=2;" vertex="1" parent="1">
          <mxGeometry x="-100" y="-283" width="770" height="600" as="geometry" />
        </mxCell>
        <mxCell id="ViQL7UCzNW7ZSoKKCmrP-10" value="" style="group;fillColor=#a20025;fontColor=#ffffff;strokeColor=#6F0000;" vertex="1" connectable="0" parent="1">
          <mxGeometry x="-80" y="362" width="730" height="80" as="geometry" />
        </mxCell>
        <mxCell id="ViQL7UCzNW7ZSoKKCmrP-1" value="" style="rounded=0;whiteSpace=wrap;html=1;" vertex="1" parent="ViQL7UCzNW7ZSoKKCmrP-10">
          <mxGeometry width="730" height="80" as="geometry" />
        </mxCell>
        <mxCell id="ViQL7UCzNW7ZSoKKCmrP-2" value="数据源" style="rounded=0;whiteSpace=wrap;html=1;fillColor=#a0522d;strokeColor=#6D1F00;fontColor=#ffffff;" vertex="1" parent="ViQL7UCzNW7ZSoKKCmrP-10">
          <mxGeometry width="110" height="80" as="geometry" />
        </mxCell>
        <mxCell id="ViQL7UCzNW7ZSoKKCmrP-4" value="历史结构化数据" style="rounded=0;whiteSpace=wrap;html=1;fillColor=#a0522d;fontColor=#ffffff;strokeColor=#6D1F00;" vertex="1" parent="ViQL7UCzNW7ZSoKKCmrP-10">
          <mxGeometry x="130" y="20" width="120" height="40" as="geometry" />
        </mxCell>
        <mxCell id="ViQL7UCzNW7ZSoKKCmrP-5" value="数据源" style="rounded=0;whiteSpace=wrap;html=1;fillColor=#a0522d;strokeColor=#6D1F00;fontColor=#ffffff;" vertex="1" parent="ViQL7UCzNW7ZSoKKCmrP-10">
          <mxGeometry width="110" height="80" as="geometry" />
        </mxCell>
        <mxCell id="ViQL7UCzNW7ZSoKKCmrP-7" value="历史非结构化数据" style="rounded=0;whiteSpace=wrap;html=1;fillColor=#a0522d;fontColor=#ffffff;strokeColor=#6D1F00;" vertex="1" parent="ViQL7UCzNW7ZSoKKCmrP-10">
          <mxGeometry x="360" y="20" width="120" height="40" as="geometry" />
        </mxCell>
        <mxCell id="ViQL7UCzNW7ZSoKKCmrP-9" value="实时采集数据" style="rounded=0;whiteSpace=wrap;html=1;fillColor=#a0522d;fontColor=#ffffff;strokeColor=#6D1F00;" vertex="1" parent="ViQL7UCzNW7ZSoKKCmrP-10">
          <mxGeometry x="590" y="20" width="120" height="40" as="geometry" />
        </mxCell>
        <mxCell id="ViQL7UCzNW7ZSoKKCmrP-12" value="" style="rounded=0;whiteSpace=wrap;html=1;" vertex="1" parent="1">
          <mxGeometry x="-80" y="187" width="730" height="110" as="geometry" />
        </mxCell>
        <mxCell id="ViQL7UCzNW7ZSoKKCmrP-13" value="数据源" style="rounded=0;whiteSpace=wrap;html=1;fillColor=#a0522d;strokeColor=#6D1F00;fontColor=#ffffff;" vertex="1" parent="1">
          <mxGeometry x="-80" y="217" width="110" height="80" as="geometry" />
        </mxCell>
        <mxCell id="ViQL7UCzNW7ZSoKKCmrP-15" value="中间层" style="rounded=0;whiteSpace=wrap;html=1;fillColor=#0050ef;strokeColor=#001DBC;fontColor=#ffffff;" vertex="1" parent="1">
          <mxGeometry x="-80" y="187" width="110" height="110" as="geometry" />
        </mxCell>
        <mxCell id="ViQL7UCzNW7ZSoKKCmrP-28" value="" style="rounded=1;whiteSpace=wrap;html=1;dashed=1;" vertex="1" parent="1">
          <mxGeometry x="50" y="247" width="580" height="40" as="geometry" />
        </mxCell>
        <mxCell id="ViQL7UCzNW7ZSoKKCmrP-29" value="flume" style="rounded=0;whiteSpace=wrap;html=1;fillColor=#0050ef;fontColor=#ffffff;strokeColor=#001DBC;" vertex="1" parent="1">
          <mxGeometry x="60" y="252" width="170" height="30" as="geometry" />
        </mxCell>
        <mxCell id="ViQL7UCzNW7ZSoKKCmrP-38" value="sqoop" style="rounded=0;whiteSpace=wrap;html=1;fillColor=#0050ef;fontColor=#ffffff;strokeColor=#001DBC;" vertex="1" parent="1">
          <mxGeometry x="255" y="252" width="170" height="30" as="geometry" />
        </mxCell>
        <mxCell id="ViQL7UCzNW7ZSoKKCmrP-39" value="MQTT" style="rounded=0;whiteSpace=wrap;html=1;fillColor=#0050ef;fontColor=#ffffff;strokeColor=#001DBC;" vertex="1" parent="1">
          <mxGeometry x="450" y="252" width="170" height="30" as="geometry" />
        </mxCell>
        <mxCell id="ViQL7UCzNW7ZSoKKCmrP-20" value="" style="rounded=1;whiteSpace=wrap;html=1;dashed=1;" vertex="1" parent="1">
          <mxGeometry x="50" y="200" width="580" height="40" as="geometry" />
        </mxCell>
        <mxCell id="ViQL7UCzNW7ZSoKKCmrP-21" value="解析" style="rounded=0;whiteSpace=wrap;html=1;fillColor=#008a00;fontColor=#ffffff;strokeColor=#005700;" vertex="1" parent="1">
          <mxGeometry x="60" y="205" width="70" height="30" as="geometry" />
        </mxCell>
        <mxCell id="ViQL7UCzNW7ZSoKKCmrP-22" value="分类&lt;span style=&quot;color: rgba(0, 0, 0, 0); font-family: monospace; font-size: 0px; text-align: start; text-wrap-mode: nowrap;&quot;&gt;%3CmxGraphModel%3E%3Croot%3E%3CmxCell%20id%3D%220%22%2F%3E%3CmxCell%20id%3D%221%22%20parent%3D%220%22%2F%3E%3CmxCell%20id%3D%222%22%20value%3D%22%E8%A7%A3%E6%9E%90%22%20style%3D%22rounded%3D0%3BwhiteSpace%3Dwrap%3Bhtml%3D1%3BfillColor%3D%23008a00%3BfontColor%3D%23ffffff%3BstrokeColor%3D%23005700%3B%22%20vertex%3D%221%22%20parent%3D%221%22%3E%3CmxGeometry%20x%3D%2260%22%20y%3D%22225%22%20width%3D%2270%22%20height%3D%2230%22%20as%3D%22geometry%22%2F%3E%3C%2FmxCell%3E%3C%2Froot%3E%3C%2FmxGraphModel%3E&lt;/span&gt;" style="rounded=0;whiteSpace=wrap;html=1;fillColor=#008a00;fontColor=#ffffff;strokeColor=#005700;" vertex="1" parent="1">
          <mxGeometry x="430" y="205" width="70" height="30" as="geometry" />
        </mxCell>
        <mxCell id="ViQL7UCzNW7ZSoKKCmrP-23" value="清洗" style="rounded=0;whiteSpace=wrap;html=1;fillColor=#008a00;fontColor=#ffffff;strokeColor=#005700;" vertex="1" parent="1">
          <mxGeometry x="185" y="205" width="70" height="30" as="geometry" />
        </mxCell>
        <mxCell id="ViQL7UCzNW7ZSoKKCmrP-24" value="去重" style="rounded=0;whiteSpace=wrap;html=1;fillColor=#008a00;fontColor=#ffffff;strokeColor=#005700;" vertex="1" parent="1">
          <mxGeometry x="305" y="205" width="70" height="30" as="geometry" />
        </mxCell>
        <mxCell id="ViQL7UCzNW7ZSoKKCmrP-25" value="转换" style="rounded=0;whiteSpace=wrap;html=1;fillColor=#008a00;fontColor=#ffffff;strokeColor=#005700;" vertex="1" parent="1">
          <mxGeometry x="550" y="205" width="70" height="30" as="geometry" />
        </mxCell>
        <mxCell id="ViQL7UCzNW7ZSoKKCmrP-43" value="" style="shape=flexArrow;endArrow=classic;html=1;rounded=0;fontSize=12;startSize=8;endSize=8;curved=1;exitX=0.274;exitY=-0.011;exitDx=0;exitDy=0;exitPerimeter=0;entryX=0.285;entryY=0.999;entryDx=0;entryDy=0;entryPerimeter=0;" edge="1" parent="1" target="ViQL7UCzNW7ZSoKKCmrP-18">
          <mxGeometry width="50" height="50" relative="1" as="geometry">
            <mxPoint x="120.0200000000001" y="362.1200000000001" as="sourcePoint" />
            <mxPoint x="120" y="321" as="targetPoint" />
          </mxGeometry>
        </mxCell>
        <mxCell id="ViQL7UCzNW7ZSoKKCmrP-44" value="" style="shape=flexArrow;endArrow=classic;html=1;rounded=0;fontSize=12;startSize=8;endSize=8;curved=1;exitX=0.274;exitY=-0.011;exitDx=0;exitDy=0;exitPerimeter=0;entryX=0.57;entryY=1;entryDx=0;entryDy=0;entryPerimeter=0;" edge="1" parent="1" target="ViQL7UCzNW7ZSoKKCmrP-18">
          <mxGeometry width="50" height="50" relative="1" as="geometry">
            <mxPoint x="339" y="362" as="sourcePoint" />
            <mxPoint x="339" y="321" as="targetPoint" />
          </mxGeometry>
        </mxCell>
        <mxCell id="ViQL7UCzNW7ZSoKKCmrP-45" value="" style="shape=flexArrow;endArrow=classic;html=1;rounded=0;fontSize=12;startSize=8;endSize=8;curved=1;exitX=0.274;exitY=-0.011;exitDx=0;exitDy=0;exitPerimeter=0;entryX=0.869;entryY=0.998;entryDx=0;entryDy=0;entryPerimeter=0;" edge="1" parent="1" target="ViQL7UCzNW7ZSoKKCmrP-18">
          <mxGeometry width="50" height="50" relative="1" as="geometry">
            <mxPoint x="570" y="362" as="sourcePoint" />
            <mxPoint x="570" y="321" as="targetPoint" />
          </mxGeometry>
        </mxCell>
        <mxCell id="ViQL7UCzNW7ZSoKKCmrP-47" value="" style="rounded=0;whiteSpace=wrap;html=1;" vertex="1" parent="1">
          <mxGeometry x="-80" y="60" width="730" height="110" as="geometry" />
        </mxCell>
        <mxCell id="ViQL7UCzNW7ZSoKKCmrP-48" value="存储层" style="rounded=0;whiteSpace=wrap;html=1;fillColor=#0050ef;strokeColor=#001DBC;fontColor=#ffffff;" vertex="1" parent="1">
          <mxGeometry x="-80" y="60" width="110" height="110" as="geometry" />
        </mxCell>
      </root>
    </mxGraphModel>
  </diagram>
</mxfile>
